<?xml version="1.0" encoding="UTF-8"?>
<svg id="Layer_2" data-name="Layer 2" xmlns="http://www.w3.org/2000/svg" viewBox="0 0 233.5 305.29">
  <g id="Layer_1-2" data-name="Layer 1">
    <path d="M46.44,1.54c44.88,2.48,95.34-4.32,139.59-.15,41.29,3.9,49.68,41.3,46.66,76.41-2.75,32.01-48.26,31.53-51.92.85-.79-6.65,1.41-23.53-1.06-27.94-.44-.78-2.87-2.99-3.76-3.24l-119.27.32c-2.16,1.8-3.68,2.94-4.08,5.92-.76,5.74-.67,24.22.14,29.96.6,4.21,2.81,6.46,5.97,9.03l148.95,70.05c10.62,5.84,19.18,15.59,22.7,27.3,3.96,13.18,3.51,54.73,2.16,69.59-3.05,33.34-33.41,54.25-65.23,41.49-14.68-5.89-33.25-19.77-46.92-24.08-3.35-1.05-4.12-1.05-7.45,0-21.11,6.64-43.6,29.4-67.76,28.2-20.07-1-37.81-17.09-42.81-36.19-2.45-9.35-3.09-41.42-1.47-51.06,3.39-20.09,30.26-28.68,44.28-13.76,12.96,13.79,4.66,29.34,7.51,44.49.58,3.08,4.05,5.58,6.99,4.09,18.81-8.6,36.77-20.53,56.58-26.47,20.41,5.76,38.76,18.39,58.39,26.53,2.66,1.14,5.51-1.57,5.99-4.14,1.09-5.74.82-34.64-.07-40.88-.73-5.13-4.04-7.17-7.41-10.59L27.64,128.78C9.22,119.38,2.03,100.54.67,80.75-1.92,43.19,3.72,9.14,46.44,1.54Z"/>
  </g>
</svg>