<?xml version="1.0" encoding="UTF-8"?>
<svg id="Layer_2" data-name="Layer 2" xmlns="http://www.w3.org/2000/svg" viewBox="0 0 122.97 185.61">
  <g id="Layer_1-2" data-name="Layer 1">
    <g id="VlrHNu.tif">
      <path d="M0,8.12l2.49-1.5,15.51,15.66c3.25,46.92-1.55,94.96,2.47,141.89,5.12,13.55,20.34,19.83,33.51,13.43-21.33-13.55-22.38-36.6-20.82-59.66l1.37-1.65c3.08-.9,15.04,12.69,17.96,14.97,2.14,11.38-2.3,24.97,3.51,35.38,1.14,2.04,3.88,5.84,6.43,5.55.38-.06,3.4-5.44,3.76-6.36,2.96-7.59,2.73-43.43,1.85-53.07-1.44-15.89-17.78-17.62-26.58-29.33C25.86,62.68,29.87,9.82,58.26.41c9.01-2.99,21.38,10.89,25.14,18.27,4.86,9.53,6.07,32.75,4.64,43.32-.29,2.13-.93,4.15-3.41,4.35l-15.72-17.29c-3.59-13.52,4.15-30.54-7.4-41.27-3.47-.3-8.16,11.1-8.55,14.25-1.41,11.51-1.1,40.06-.02,51.91,1.38,15.12,9.54,14.41,18.96,21.97,14.8,11.9,17.33,28.72,16.13,46.82-.96,14.57-7.24,25.31-18.04,34.85,14.09,6.13,30.38-5.41,31.89-20.05l.32-134.27c.27-1.18,15.19-17.34,16.36-17.66.68-.19,2.37-.37,2.51.59.81,1.9.86,3.82.97,5.85,2.49,45.48-.8,94.62-1.51,140.15-7.2,20.96-25.38,33.87-48.03,31.86-3.75-.33-7.06-2.21-11.02-2.07-4.17.14-5.82,2.51-9.05,3.02-19.18,3.04-38.61-5.89-47.88-22.93-.7-1.29-4.56-9.84-4.56-10.41V8.12Z"/>
    </g>
  </g>
</svg>