<?xml version="1.0" encoding="UTF-8"?>
<svg id="Layer_2" data-name="Layer 2" xmlns="http://www.w3.org/2000/svg" viewBox="0 0 241.99 36.4">
  <defs>
    <style>
      .cls-1 {
        fill: #231f20;
        stroke: #000;
        stroke-miterlimit: 10;
      }
    </style>
  </defs>
  <g id="Layer_1-2" data-name="Layer 1">
    <g>
      <path class="cls-1" d="M13.9,16.06c1.07.4,1.88.71,2.44.93s1.31.54,2.28.98c.97.44,1.71.83,2.21,1.18.5.35,1.09.8,1.76,1.36.67.55,1.17,1.12,1.51,1.71.33.59.61,1.28.83,2.08.22.8.31,1.66.28,2.56-.07,1.24-.44,2.44-1.1,3.59-.67,1.16-1.64,2.15-2.91,2.99-2.38,1.61-5.44,2.39-9.19,2.36-2.95.07-5.44-.74-7.48-2.41-.67-.54-1.24-1.14-1.71-1.81l-.1-.1c-.23-.33-.47-.52-.7-.55-.27-.07-.55.02-.85.25-.23.17-.42.15-.55-.05-.1-.13-.12-.28-.05-.45.23-.47.4-1.02.5-1.66.1-.6.13-1.27.1-2.01v-.2l.05-.05v-.05h.05v-.05h.05v-.05h.1l.05-.05h.2v.05h.1v.05h.05v.05h.05v.05h.05v.1h.05v.05c.1.9.28,1.71.55,2.41,0,.03.02.08.05.15.54,1.31,1.36,2.41,2.46,3.31,1.91,1.54,4.23,2.28,6.98,2.21,2.51-.03,4.65-.79,6.43-2.26,1.87-1.54,2.81-3.3,2.81-5.27,0-1.81-.82-3.36-2.46-4.67-1.24-1-3.2-2.01-5.87-3.01-.47-.2-1.15-.45-2.06-.75-.97-.37-1.71-.64-2.21-.83s-1.17-.47-2.01-.85c-.84-.38-1.47-.74-1.91-1.05-.44-.32-.93-.73-1.48-1.23-.55-.5-.95-1.03-1.2-1.58-.25-.55-.45-1.21-.6-1.96-.15-.75-.18-1.58-.08-2.49.27-2.48,1.56-4.54,3.87-6.18C7.42,1.29,10.11.52,13.29.55h.05c2.54.03,4.89.65,7.03,1.86,2.08,1.17,3.4,2.64,3.97,4.42.03.1.07.2.1.3.13.77.12,1.47-.05,2.11-.27.8-.7,1.29-1.31,1.46l-.1.05h-.45c-.3-.03-.57-.17-.8-.4-.23-.23-.4-.55-.5-.95-.07-.3-.08-.62-.05-.95v-.05c.13-2.14-.45-3.8-1.76-4.97-1.31-1.21-3.35-1.89-6.13-2.06-2.24.1-4.17.84-5.77,2.21-1.61,1.37-2.46,2.98-2.56,4.82-.03.84.09,1.6.38,2.28.28.69.61,1.25.98,1.68.37.44.95.87,1.73,1.31.79.44,1.45.76,1.98.98.54.22,1.36.53,2.46.93l1.41.5Z"/>
      <path class="cls-1" d="M53.86,5.72c3.01,3.41,4.52,7.55,4.52,12.4s-1.51,8.99-4.52,12.4c-1.98,2.28-4.29,3.82-6.95,4.62-2.66.8-5.31.8-7.96,0-2.64-.8-4.95-2.34-6.93-4.62-3.01-3.42-4.52-7.55-4.52-12.4s1.51-8.99,4.52-12.4c1.97-2.28,4.28-3.82,6.93-4.62,2.64-.8,5.3-.8,7.96,0,2.66.8,4.98,2.34,6.95,4.62ZM51.3,30.02c2.34-3.28,3.51-7.25,3.51-11.9s-1.17-8.62-3.51-11.9c-1.54-2.11-3.31-3.54-5.32-4.29s-4.03-.76-6.05-.03c-2.03.74-3.81,2.18-5.35,4.32-2.34,3.28-3.51,7.25-3.51,11.9s1.17,8.62,3.51,11.9c1.14,1.57,2.44,2.78,3.92,3.62,1.47.84,2.95,1.25,4.44,1.25s2.97-.42,4.44-1.25c1.47-.84,2.78-2.04,3.92-3.62Z"/>
      <path class="cls-1" d="M86.5.55c.27,0,.4.13.4.4s-.13.4-.4.4h-.9v20.28c0,2.14-.31,4.11-.93,5.9-.62,1.79-1.44,3.27-2.46,4.44-1.02,1.17-2.18,2.09-3.49,2.76-.94.47-1.93.8-2.96,1h-.25l-.05.05h-.2c-.47.07-.92.1-1.36.1-2.04,0-3.93-.55-5.67-1.66-.07-.03-.12-.07-.15-.1h-.05c-.07-.07-.12-.1-.15-.1l-.05-.05-.1-.05-.05-.05c-.07-.07-.12-.1-.15-.1l-.05-.05-.05-.05s-.08-.07-.15-.1l-.05-.05-.1-.05-.1-.1-.1-.05v-.05c-2.95-2.48-4.6-6.18-4.97-11.1v-.25l-.05-.05v-1.26c-.03-.1-.05-.22-.05-.35V1.35h-.9c-.27,0-.4-.13-.4-.4s.13-.4.4-.4h5.62c.27,0,.4.13.4.4s-.13.4-.4.4h-.9v19.43c0,.44.02.85.05,1.26.23,4.45,1.21,7.77,2.91,9.94,1.61,2.04,3.83,3.03,6.68,2.96h.35c.94-.2,1.82-.5,2.66-.9,1.94-1,3.5-2.56,4.67-4.67,1.17-2.11,1.76-4.69,1.76-7.73V1.35h-.9c-.27,0-.4-.13-.4-.4s.13-.4.4-.4h2.66Z"/>
      <path class="cls-1" d="M113.76,28.16c.27,0,.4.15.4.45v6.68c0,.27-.13.4-.4.4h-23.8c-.27,0-.4-.13-.4-.4s.13-.4.4-.4h.9V1.35h-.9c-.27,0-.4-.13-.4-.4s.13-.4.4-.4h5.62c.27,0,.4.13.4.4s-.13.4-.4.4h-.9v33.54h12.65c1.81-.07,3.2-.62,4.17-1.66,1.04-1.04,1.66-2.59,1.86-4.67,0-.27.13-.4.4-.4Z"/>
      <path class="cls-1" d="M152.97.55c.27,0,.4.14.4.43s-.13.43-.4.43h-1.05l-11.7,30.02s-.02.05-.05.05l-1.51,3.97-.05.05v.05h-.05v.05h-.05v.05h-.1v.05h-.3v-.05h-.1v-.05c-.07-.03-.1-.08-.1-.15l-6.88-16.47-4.87,12.45s-.02.05-.05.05l-.95,2.51-.55,1.46-.05.05v.05h-.05v.05h-.05v.05h-.1v.05h-.3v-.05h-.1v-.05c-.07-.03-.1-.08-.1-.15L109.59,1.35h-.65c-.27,0-.4-.13-.4-.4s.13-.4.4-.4h5.22c.27,0,.4.13.4.4s-.13.4-.4.4h-.45l12.05,28.87,4.82-12.35-6.93-16.52h-.65c-.27,0-.4-.13-.4-.4s.13-.4.4-.4h5.22c.27,0,.4.13.4.4s-.13.4-.4.4h-.45l12.05,28.87,11.25-28.87h-.7c-.3,0-.45-.13-.45-.4s.15-.4.45-.4h2.61Z"/>
      <path class="cls-1" d="M177.82,5.72c3.01,3.41,4.52,7.55,4.52,12.4s-1.51,8.99-4.52,12.4c-1.98,2.28-4.29,3.82-6.95,4.62-2.66.8-5.31.8-7.96,0-2.64-.8-4.95-2.34-6.93-4.62-3.01-3.42-4.52-7.55-4.52-12.4s1.51-8.99,4.52-12.4c1.97-2.28,4.28-3.82,6.93-4.62,2.64-.8,5.3-.8,7.96,0,2.66.8,4.98,2.34,6.95,4.62ZM175.26,30.02c2.34-3.28,3.51-7.25,3.51-11.9s-1.17-8.62-3.51-11.9c-1.54-2.11-3.31-3.54-5.32-4.29s-4.03-.76-6.05-.03c-2.03.74-3.81,2.18-5.35,4.32-2.34,3.28-3.51,7.25-3.51,11.9s1.17,8.62,3.51,11.9c1.14,1.57,2.44,2.78,3.92,3.62,1.47.84,2.95,1.25,4.44,1.25s2.97-.42,4.44-1.25c1.47-.84,2.78-2.04,3.92-3.62Z"/>
      <path class="cls-1" d="M211.26,10.29v.45l-.05.15v.45l-.05.05v.35l-.05.05v.2l-.05.15v.1l-.05.05v.15l-.05.05v.15l-.05.05v.15l-.05.05v.15l-.05.05v.05l-.05.15v.05l-.05.05v.05l-.05.1v.05l-.05.05-.05.15-.05.1v.1l-.05.05v.05l-.05.05-.05.1v.05l-.05.1-.05.05-.05.1c-.03.07-.05.12-.05.15-.03.07-.07.12-.1.15-.03.07-.07.12-.1.15,0,.03-.03.08-.1.15,0,.03-.02.08-.05.15-.03.03-.08.08-.13.15s-.08.12-.08.15c-.03.03-.08.08-.15.15,0,.03-.03.08-.1.15-.03.03-.07.08-.1.15-.03.03-.07.08-.1.15-.07.07-.12.12-.15.15-.03.03-.07.08-.1.15-.03.03-.07.07-.1.1-.03.03-.08.08-.15.15-.07.07-.12.12-.15.15-.07.07-.1.12-.1.15-.07.03-.12.07-.15.1-.03.03-.08.08-.15.15-.03.03-.08.08-.13.13-.05.05-.11.09-.18.12-.03.03-.07.08-.1.15-.1.07-.17.1-.2.1-.03.03-.08.07-.15.1-.03.07-.08.12-.13.15-.05.03-.11.07-.18.1-.03.03-.08.07-.15.1-.07.07-.13.12-.2.15-.03,0-.08.03-.15.08-.07.05-.13.09-.2.13-.07.03-.12.07-.15.1-.1.07-.17.1-.2.1-.07.03-.13.07-.18.1-.05.03-.11.07-.18.1-.07.03-.13.07-.2.1-.07.03-.13.07-.2.1-.07.03-.13.07-.2.1-.03,0-.1.02-.2.05-.07.03-.13.07-.18.1-.05.03-.13.07-.23.1-.03,0-.1.02-.2.05-.07.03-.13.07-.2.1-.07.03-.13.05-.2.05-.07.03-.15.07-.25.1-.03,0-.1.02-.2.05-.1.03-.18.05-.25.05-.1.03-.17.07-.2.1-.1,0-.18.02-.25.05-.03,0-.1.02-.2.05-.07,0-.15.02-.25.05-.03,0-.12.02-.25.05-.07,0-.15.02-.25.05-.03,0-.12.02-.25.05h-.2c-.07.03-.15.05-.25.05s-.2.02-.3.05h-.25c-.07.03-.15.05-.25.05h-.25c-.07,0-.15.02-.25.05l9.84,14.31h.6c.27,0,.4.13.4.4s-.13.4-.4.4h-5.67c-.27,0-.4-.13-.4-.4s.13-.4.4-.4h.45l-9.79-14.31h-5.12v14.31h.9c.27,0,.4.13.4.4s-.13.4-.4.4h-5.62c-.27,0-.4-.13-.4-.4s.13-.4.4-.4h.95V1.35h-.95c-.27,0-.4-.13-.4-.4s.13-.4.4-.4h13.56c1,0,1.96.07,2.86.2.23.07.48.12.75.15.13.03.28.07.45.1.1.03.18.05.25.05.03.03.1.05.2.05.1.03.17.05.2.05.13.07.28.12.45.15.1.03.17.05.2.05.1.03.17.07.2.1.07.03.15.05.25.05.07.03.13.07.2.1.07.03.13.06.18.08.05.02.11.04.18.08.03.03.1.07.2.1.1.03.17.07.2.1.07.03.13.05.2.05.07.07.12.1.15.1.07.03.13.07.2.1l.15.1c.07.03.13.07.2.1.03.03.08.07.15.1.07.03.13.07.2.1.03.03.08.07.15.1.07.07.12.12.15.15.07.03.13.07.18.1.05.03.09.07.13.1.03.03.08.07.15.1.03.03.08.08.15.12.07.05.12.09.15.13.03.03.08.08.15.12.07.05.12.09.15.13.03.03.07.07.1.1.07.07.12.12.15.15.03.03.08.08.13.12.05.05.09.09.13.13.03.03.08.08.13.15.05.07.09.11.13.13.03.02.07.06.1.12.03.03.08.08.15.15l.1.15s.03.07.1.1c.03.07.07.12.1.15.03.07.07.12.1.15.03.07.07.12.1.15.03.03.07.08.1.13.03.05.07.11.1.18.03.07.05.12.05.15.03,0,.07.03.1.1v.05c.03.07.07.12.1.15.03.03.05.08.05.15l.1.1.05.15v.05l.05.05v.05l.05.05.05.1v.05l.05.1.05.1v.1l.05.15.05.05v.05l.05.05.05.15v.05l.05.15v.1l.05.1v.1l.05.05v.15l.05.15v.1l.05.05v.2l.05.1v.3l.05.05v.5l.05.1v.35ZM205.99,14.71c.54-1.27.81-2.64.83-4.09.02-1.46-.24-2.84-.78-4.14-.64-1.44-1.56-2.62-2.79-3.54-1.22-.92-2.69-1.45-4.39-1.58h-8.84v18.43h8.59c1.77-.13,3.29-.65,4.54-1.56,1.25-.9,2.2-2.07,2.84-3.51Z"/>
      <path class="cls-1" d="M241.09,34.89c.27,0,.4.13.4.4s-.13.4-.4.4h-6.02c-.27,0-.4-.13-.4-.4s.13-.4.4-.4h.6l-9.89-14.81-11.4,14.81h.75c.3,0,.45.13.45.4s-.15.4-.45.4h-2.61c-.27,0-.4-.13-.4-.4s.13-.4.4-.4h.8l12-15.56-12-17.97h-.75c-.27,0-.4-.13-.4-.4s.13-.4.4-.4h6.02c.27,0,.4.13.4.4s-.13.4-.4.4h-.75l9.89,14.81,11.45-14.81h-.8c-.27,0-.4-.13-.4-.4s.13-.4.4-.4h2.66c.27,0,.4.13.4.4s-.13.4-.4.4h-.8l-12,15.56,12,17.97h.85Z"/>
    </g>
  </g>
</svg>